<svg xmlns="http://www.w3.org/2000/svg" xmlns:xlink="http://www.w3.org/1999/xlink" width="264" zoomAndPan="magnify" viewBox="0 0 198.75 50.249999" height="67" preserveAspectRatio="xMidYMid meet" version="1.0"><defs><g/></defs><g fill="#ffffff" fill-opacity="1"><g transform="translate(0.405045, 37.528133)"><g><path d="M 3.9375 -32.46875 L 7.328125 -32.46875 C 9.023438 -32.46875 10.382812 -32.234375 11.40625 -31.765625 C 12.425781 -31.304688 13.304688 -30.570312 14.046875 -29.5625 C 14.796875 -28.5625 15.664062 -27.054688 16.65625 -25.046875 L 19.34375 -19.609375 L 22.03125 -25.046875 C 23.019531 -27.054688 23.882812 -28.5625 24.625 -29.5625 C 25.363281 -30.570312 26.242188 -31.304688 27.265625 -31.765625 C 28.285156 -32.234375 29.644531 -32.46875 31.34375 -32.46875 L 34.734375 -32.46875 L 34.734375 0 L 28.796875 0 L 28.796875 -25.640625 C 28.429688 -25.640625 28.125 -25.46875 27.875 -25.125 C 27.625 -24.789062 27.253906 -24.191406 26.765625 -23.328125 L 19.34375 -9.546875 L 11.921875 -23.328125 C 11.421875 -24.191406 11.046875 -24.789062 10.796875 -25.125 C 10.554688 -25.46875 10.25 -25.65625 9.875 -25.6875 L 9.875 0 L 3.9375 0 Z M 3.9375 -32.46875 "/></g></g></g><g fill="#ffffff" fill-opacity="1"><g transform="translate(38.157957, 37.528133)"><g><path d="M 23.46875 -21.796875 L 23.46875 2.046875 C 23.46875 5.066406 22.640625 7.257812 20.984375 8.625 C 19.328125 9.988281 16.644531 10.671875 12.9375 10.671875 L 6.8125 10.671875 L 6.8125 6.03125 L 12.9375 6.03125 C 14.507812 6.03125 15.648438 5.71875 16.359375 5.09375 C 17.078125 4.476562 17.4375 3.460938 17.4375 2.046875 L 17.4375 -2.921875 C 16.007812 -0.660156 13.800781 0.46875 10.8125 0.46875 C 8.363281 0.46875 6.472656 -0.179688 5.140625 -1.484375 C 3.816406 -2.785156 3.15625 -4.640625 3.15625 -7.046875 L 3.15625 -15.078125 C 3.15625 -15.910156 2.988281 -16.585938 2.65625 -17.109375 C 2.332031 -17.640625 1.753906 -18.210938 0.921875 -18.828125 L 4.96875 -22.359375 C 6.539062 -21.546875 7.632812 -20.625 8.25 -19.59375 C 8.875 -18.5625 9.1875 -17.113281 9.1875 -15.25 L 9.1875 -7.609375 C 9.1875 -6.554688 9.484375 -5.71875 10.078125 -5.09375 C 10.679688 -4.476562 11.507812 -4.171875 12.5625 -4.171875 C 13.988281 -4.171875 15.0625 -4.632812 15.78125 -5.5625 C 16.507812 -6.488281 17.0625 -7.710938 17.4375 -9.234375 L 17.4375 -21.796875 Z M 23.46875 -21.796875 "/></g></g></g><g fill="#f3052a" fill-opacity="1"><g transform="translate(59.948401, 45.54351)"><g><path d="M 17.546875 -17.46875 C 18.765625 -17.164062 19.769531 -16.6875 20.5625 -16.03125 C 21.363281 -15.382812 22.054688 -14.546875 22.640625 -13.515625 C 23.222656 -12.484375 23.832031 -11.066406 24.46875 -9.265625 L 27.765625 0 L 21.890625 0 L 18.75 -8.6875 C 18.363281 -9.769531 18.007812 -10.59375 17.6875 -11.15625 C 17.375 -11.71875 16.925781 -12.191406 16.34375 -12.578125 C 15.769531 -12.960938 14.957031 -13.238281 13.90625 -13.40625 L 9.359375 -8.359375 L 9.359375 0 L 3.515625 0 L 3.515625 -28.96875 L 9.359375 -28.96875 L 9.359375 -15.6875 L 21.0625 -28.96875 L 27.9375 -28.96875 Z M 17.546875 -17.46875 "/></g></g></g><g fill="#f3052a" fill-opacity="1"><g transform="translate(88.016289, 45.54351)"><g><path d="M 5.671875 -22.0625 C 4.816406 -22.0625 4.082031 -22.363281 3.46875 -22.96875 C 2.863281 -23.570312 2.5625 -24.304688 2.5625 -25.171875 C 2.5625 -25.992188 2.863281 -26.710938 3.46875 -27.328125 C 4.082031 -27.953125 4.816406 -28.265625 5.671875 -28.265625 C 6.492188 -28.265625 7.21875 -27.953125 7.84375 -27.328125 C 8.46875 -26.710938 8.78125 -25.992188 8.78125 -25.171875 C 8.78125 -24.304688 8.46875 -23.570312 7.84375 -22.96875 C 7.21875 -22.363281 6.492188 -22.0625 5.671875 -22.0625 Z M 6.75 0.5 C 5.34375 -0.21875 4.363281 -1.039062 3.8125 -1.96875 C 3.257812 -2.894531 2.984375 -4.1875 2.984375 -5.84375 L 2.984375 -19.453125 L 8.359375 -19.453125 L 8.359375 -6 C 8.359375 -5.257812 8.503906 -4.65625 8.796875 -4.1875 C 9.085938 -3.71875 9.601562 -3.207031 10.34375 -2.65625 Z M 6.75 0.5 "/></g></g></g><g fill="#f3052a" fill-opacity="1"><g transform="translate(98.779786, 45.54351)"><g><path d="M 8.203125 -15.3125 L 8.203125 -7.28125 C 8.203125 -6.125 8.378906 -5.3125 8.734375 -4.84375 C 9.085938 -4.375 9.691406 -4.140625 10.546875 -4.140625 L 13.828125 -4.140625 L 13.828125 0 L 10.546875 0 C 8.617188 0 7.09375 -0.234375 5.96875 -0.703125 C 4.851562 -1.171875 4.046875 -1.925781 3.546875 -2.96875 C 3.054688 -4.019531 2.8125 -5.457031 2.8125 -7.28125 L 2.8125 -22.46875 C 2.8125 -23.21875 2.664062 -23.828125 2.375 -24.296875 C 2.09375 -24.765625 1.578125 -25.273438 0.828125 -25.828125 L 4.421875 -28.96875 C 5.835938 -28.25 6.820312 -27.425781 7.375 -26.5 C 7.925781 -25.582031 8.203125 -24.296875 8.203125 -22.640625 L 8.203125 -19.453125 L 13.828125 -19.453125 L 13.828125 -15.3125 Z M 8.203125 -15.3125 "/></g></g></g><g fill="#f3052a" fill-opacity="1"><g transform="translate(113.020727, 45.54351)"><g><path d="M 10.796875 0.5 C 7.929688 0.5 5.722656 -0.160156 4.171875 -1.484375 C 2.628906 -2.816406 1.859375 -4.707031 1.859375 -7.15625 L 1.859375 -12.296875 C 1.859375 -14.753906 2.628906 -16.644531 4.171875 -17.96875 C 5.722656 -19.289062 7.929688 -19.953125 10.796875 -19.953125 C 14.390625 -19.953125 16.957031 -18.863281 18.5 -16.6875 L 14.8125 -13.703125 C 14.15625 -14.472656 13.550781 -15.015625 13 -15.328125 C 12.445312 -15.648438 11.710938 -15.8125 10.796875 -15.8125 C 9.671875 -15.8125 8.796875 -15.503906 8.171875 -14.890625 C 7.554688 -14.285156 7.25 -13.421875 7.25 -12.296875 L 7.25 -7.15625 C 7.25 -6.03125 7.554688 -5.160156 8.171875 -4.546875 C 8.796875 -3.941406 9.671875 -3.640625 10.796875 -3.640625 C 11.710938 -3.640625 12.445312 -3.796875 13 -4.109375 C 13.550781 -4.429688 14.15625 -4.976562 14.8125 -5.75 L 18.5 -2.765625 C 17.726562 -1.671875 16.734375 -0.851562 15.515625 -0.3125 C 14.304688 0.226562 12.734375 0.5 10.796875 0.5 Z M 10.796875 0.5 "/></g></g></g><g fill="#f3052a" fill-opacity="1"><g transform="translate(131.525665, 45.54351)"><g><path d="M 13.90625 -19.953125 C 16.03125 -19.953125 17.664062 -19.367188 18.8125 -18.203125 C 19.957031 -17.046875 20.53125 -15.394531 20.53125 -13.25 L 20.53125 0 L 15.15625 0 L 15.15625 -12.75 C 15.15625 -13.6875 14.898438 -14.429688 14.390625 -14.984375 C 13.878906 -15.535156 13.191406 -15.8125 12.328125 -15.8125 C 10.515625 -15.8125 9.207031 -14.734375 8.40625 -12.578125 L 8.40625 0 L 3.015625 0 L 3.015625 -24.546875 C 3.015625 -25.285156 2.867188 -25.890625 2.578125 -26.359375 C 2.296875 -26.828125 1.78125 -27.335938 1.03125 -27.890625 L 4.640625 -31.046875 C 6.046875 -30.328125 7.023438 -29.503906 7.578125 -28.578125 C 8.128906 -27.648438 8.40625 -26.359375 8.40625 -24.703125 L 8.40625 -17.515625 C 9.675781 -19.140625 11.507812 -19.953125 13.90625 -19.953125 Z M 13.90625 -19.953125 "/></g></g></g><g fill="#f3052a" fill-opacity="1"><g transform="translate(153.715029, 45.54351)"><g><path d="M 10.84375 -3.5625 C 11.863281 -3.5625 12.691406 -3.691406 13.328125 -3.953125 C 13.960938 -4.210938 14.648438 -4.675781 15.390625 -5.34375 L 18.578125 -2.4375 C 16.984375 -0.476562 14.40625 0.5 10.84375 0.5 C 7.664062 0.5 5.375 -0.0976562 3.96875 -1.296875 C 2.5625 -2.503906 1.859375 -4.457031 1.859375 -7.15625 L 1.859375 -13.078125 C 1.859375 -15.203125 2.625 -16.878906 4.15625 -18.109375 C 5.6875 -19.335938 7.78125 -19.953125 10.4375 -19.953125 C 13.164062 -19.953125 15.300781 -19.296875 16.84375 -17.984375 C 18.382812 -16.671875 19.15625 -14.757812 19.15625 -12.25 C 19.15625 -11.039062 19.050781 -10.101562 18.84375 -9.4375 C 18.644531 -8.769531 18.238281 -8.273438 17.625 -7.953125 C 17.019531 -7.640625 16.140625 -7.484375 14.984375 -7.484375 L 7.203125 -7.484375 L 7.203125 -7.125 C 7.203125 -4.75 8.414062 -3.5625 10.84375 -3.5625 Z M 10.4375 -15.890625 C 9.414062 -15.890625 8.617188 -15.59375 8.046875 -15 C 7.484375 -14.40625 7.203125 -13.628906 7.203125 -12.671875 L 7.203125 -11.171875 L 11.921875 -11.171875 C 12.640625 -11.171875 13.132812 -11.28125 13.40625 -11.5 C 13.6875 -11.726562 13.828125 -12.117188 13.828125 -12.671875 C 13.828125 -13.710938 13.535156 -14.507812 12.953125 -15.0625 C 12.378906 -15.613281 11.539062 -15.890625 10.4375 -15.890625 Z M 10.4375 -15.890625 "/></g></g></g><g fill="#f3052a" fill-opacity="1"><g transform="translate(173.296319, 45.54351)"><g><path d="M 13.90625 -19.953125 C 16.03125 -19.953125 17.664062 -19.367188 18.8125 -18.203125 C 19.957031 -17.046875 20.53125 -15.394531 20.53125 -13.25 L 20.53125 0 L 15.15625 0 L 15.15625 -12.75 C 15.15625 -13.6875 14.898438 -14.429688 14.390625 -14.984375 C 13.878906 -15.535156 13.191406 -15.8125 12.328125 -15.8125 C 10.515625 -15.8125 9.207031 -14.734375 8.40625 -12.578125 L 8.40625 0 L 3.015625 0 L 3.015625 -13.453125 C 3.015625 -14.191406 2.867188 -14.796875 2.578125 -15.265625 C 2.296875 -15.742188 1.78125 -16.253906 1.03125 -16.796875 L 4.640625 -19.953125 C 5.515625 -19.503906 6.207031 -19.03125 6.71875 -18.53125 C 7.226562 -18.039062 7.625 -17.460938 7.90625 -16.796875 C 8.488281 -17.742188 9.269531 -18.503906 10.25 -19.078125 C 11.226562 -19.660156 12.445312 -19.953125 13.90625 -19.953125 Z M 13.90625 -19.953125 "/></g></g></g></svg>